<svg width="47" height="48" viewBox="0 0 47 48" fill="none" xmlns="http://www.w3.org/2000/svg">
<mask id="mask0" mask-type="alpha" maskUnits="userSpaceOnUse" x="0" y="0" width="47" height="48">
<path fill-rule="evenodd" clip-rule="evenodd" d="M0 0.799805H46.9544V47.7542H0V0.799805Z" fill="white"/>
</mask>
<g mask="url(#mask0)">
<path fill-rule="evenodd" clip-rule="evenodd" d="M23.4776 46.1542C11.4144 46.1542 1.6 36.3398 1.6 24.2774C1.6 22.9558 1.7248 21.6638 1.9504 20.4062C5.2104 22.5886 8.8336 24.2278 12.7472 25.2894C13.1016 31.091 17.9208 35.7062 23.8096 35.7062C29.7472 35.7062 34.596 31.015 34.8792 25.1454C38.4688 24.0966 41.8632 22.4942 44.9984 20.3694C45.228 21.6382 45.3552 22.943 45.3552 24.2774C45.3552 36.3398 35.5408 46.1542 23.4776 46.1542M33.3064 24.6094C33.3064 29.8462 29.0464 34.1062 23.8096 34.1062C18.5728 34.1062 14.3128 29.8462 14.3128 24.6094C14.3128 19.3726 18.5728 15.1118 23.8096 15.1118C29.0464 15.1118 33.3064 19.3726 33.3064 24.6094M23.4776 2.3998C33.608 2.3998 42.1496 9.32221 44.6272 18.6838C41.6064 20.8118 38.3264 22.4262 34.8496 23.4902C34.2872 17.895 29.5512 13.5118 23.8096 13.5118C18.02 13.5118 13.2584 17.971 12.7616 23.6358C8.9608 22.5574 5.4552 20.9086 2.3176 18.7206C4.7824 9.33981 13.3336 2.3998 23.4776 2.3998M23.4776 0.799805C10.532 0.799805 0 11.3318 0 24.2774C0 37.2222 10.532 47.7542 23.4776 47.7542C36.4232 47.7542 46.9552 37.2222 46.9552 24.2774C46.9552 11.3318 36.4232 0.799805 23.4776 0.799805" fill="white"/>
</g>
<path fill-rule="evenodd" clip-rule="evenodd" d="M24.5592 28.0617L25.4752 26.7497C25.456 26.7369 23.5848 25.4249 22.1224 23.9625C20.9048 22.7441 20.9048 20.7617 22.1224 19.5433C23.3416 18.3257 25.3224 18.3257 26.5416 19.5433L27.6728 18.4121C25.8304 16.5697 22.8336 16.5697 20.9912 18.4121C19.1488 20.2545 19.1488 23.2513 20.9912 25.0937C22.556 26.6585 24.4776 28.0057 24.5592 28.0617Z" fill="white"/>
<path fill-rule="evenodd" clip-rule="evenodd" d="M23.7542 21.0803L22.8382 22.3923C22.8574 22.4051 24.7262 23.7139 26.1918 25.1803C27.4086 26.3979 27.4086 28.3803 26.1918 29.5987C24.9726 30.8163 22.991 30.8179 21.7718 29.5987L20.6406 30.7307C21.5622 31.6515 22.7718 32.1115 23.9814 32.1115C25.1918 32.1115 26.4022 31.6515 27.323 30.7307C29.1646 28.8883 29.1646 25.8907 27.323 24.0483C25.7582 22.4843 23.8358 21.1363 23.7542 21.0803Z" fill="white"/>
</svg>
