<svg width="47" height="47" viewBox="0 0 47 47" fill="none" xmlns="http://www.w3.org/2000/svg">
<rect opacity="0.01" width="46.5455" height="46.5455" fill="#FF0000"/>
<mask id="mask0" mask-type="alpha" maskUnits="userSpaceOnUse" x="1" y="0" width="46" height="47">
<path fill-rule="evenodd" clip-rule="evenodd" d="M1.45508 0.775635H46.9866V46.3071H1.45508V0.775635Z" fill="white"/>
</mask>
<g mask="url(#mask0)">
<path fill-rule="evenodd" clip-rule="evenodd" d="M24.2212 2.32715C12.5236 2.32715 3.00659 11.8441 3.00659 23.541C3.00659 35.2387 12.5236 44.7557 24.2212 44.7557C35.9189 44.7557 45.4359 35.2387 45.4359 23.541C45.4359 11.8441 35.9189 2.32715 24.2212 2.32715ZM24.2212 46.3072C11.6679 46.3072 1.45508 36.0943 1.45508 23.541C1.45508 10.9885 11.6679 0.775635 24.2212 0.775635C36.7745 0.775635 46.9874 10.9885 46.9874 23.541C46.9874 36.0943 36.7745 46.3072 24.2212 46.3072Z" fill="#FEFEFE"/>
</g>
<path fill-rule="evenodd" clip-rule="evenodd" d="M24.4279 18.2451C21.2767 18.2451 18.7136 20.8082 18.7136 23.9593C18.7136 27.1097 21.2767 29.6736 24.4279 29.6736C27.579 29.6736 30.1413 27.1097 30.1413 23.9593C30.1413 20.8082 27.579 18.2451 24.4279 18.2451ZM24.4279 31.2251C20.4218 31.2251 17.1621 27.9654 17.1621 23.9593C17.1621 19.9533 20.4218 16.6936 24.4279 16.6936C28.4339 16.6936 31.6928 19.9533 31.6928 23.9593C31.6928 27.9654 28.4339 31.2251 24.4279 31.2251Z" fill="#FEFEFE"/>
<path fill-rule="evenodd" clip-rule="evenodd" d="M37.408 8.1499C35.848 8.1499 34.5789 9.41904 34.5789 10.9791C34.5789 12.5399 35.848 13.8091 37.408 13.8091C38.9681 13.8091 40.2372 12.5399 40.2372 10.9791C40.2372 9.41904 38.9681 8.1499 37.408 8.1499ZM37.408 15.3606C34.9923 15.3606 33.0273 13.3956 33.0273 10.9791C33.0273 8.56338 34.9923 6.59839 37.408 6.59839C39.8238 6.59839 41.7887 8.56338 41.7887 10.9791C41.7887 13.3956 39.8238 15.3606 37.408 15.3606Z" fill="#FEFEFE"/>
<path fill-rule="evenodd" clip-rule="evenodd" d="M24.4284 35.5515C23.2655 35.5515 22.3191 36.4972 22.3191 37.66C22.3191 38.8229 23.2655 39.7685 24.4284 39.7685C25.5912 39.7685 26.5369 38.8229 26.5369 37.66C26.5369 36.4972 25.5912 35.5515 24.4284 35.5515ZM24.4284 41.32C22.4099 41.32 20.7676 39.6778 20.7676 37.66C20.7676 35.6415 22.4099 34 24.4284 34C26.4469 34 28.0884 35.6415 28.0884 37.66C28.0884 39.6778 26.4469 41.32 24.4284 41.32Z" fill="#FEFEFE"/>
<path fill-rule="evenodd" clip-rule="evenodd" d="M9.28625 23.2927C8.91854 23.2927 8.61987 23.5914 8.61987 23.9591C8.61987 24.3268 8.91854 24.6255 9.28625 24.6255C9.65396 24.6255 9.95263 24.3268 9.95263 23.9591C9.95263 23.5914 9.65396 23.2927 9.28625 23.2927ZM9.28625 26.177C8.06366 26.177 7.06836 25.1825 7.06836 23.9591C7.06836 22.7365 8.06366 21.7412 9.28625 21.7412C10.5088 21.7412 11.5041 22.7365 11.5041 23.9591C11.5041 25.1825 10.5088 26.177 9.28625 26.177Z" fill="#FEFEFE"/>
<mask id="mask1" mask-type="alpha" maskUnits="userSpaceOnUse" x="1" y="0" width="46" height="47">
<path fill-rule="evenodd" clip-rule="evenodd" d="M1.45508 46.3072H46.9866V0.775635H1.45508V46.3072Z" fill="white"/>
</mask>
<g mask="url(#mask1)">
<path fill-rule="evenodd" clip-rule="evenodd" d="M23.6523 34.7756H25.2039V30.4492H23.6523V34.7756Z" fill="#FEFEFE"/>
<path fill-rule="evenodd" clip-rule="evenodd" d="M29.304 20.1811L28.207 19.0842L34.6962 12.5942L35.7932 13.6912L29.304 20.1811Z" fill="#FEFEFE"/>
<path fill-rule="evenodd" clip-rule="evenodd" d="M14.3327 11.7551C13.1698 11.7551 12.2234 12.7008 12.2234 13.8636C12.2234 15.0265 13.1698 15.9729 14.3327 15.9729C15.4955 15.9729 16.4412 15.0265 16.4412 13.8636C16.4412 12.7008 15.4955 11.7551 14.3327 11.7551ZM14.3327 17.5244C12.3142 17.5244 10.6719 15.8822 10.6719 13.8636C10.6719 11.8459 12.3142 10.2036 14.3327 10.2036C16.3512 10.2036 17.9927 11.8459 17.9927 13.8636C17.9927 15.8822 16.3512 17.5244 14.3327 17.5244Z" fill="#FEFEFE"/>
<path fill-rule="evenodd" clip-rule="evenodd" d="M19.553 20.1812L15.9473 16.5762L17.0442 15.4785L20.6499 19.0842L19.553 20.1812Z" fill="#FEFEFE"/>
<path fill-rule="evenodd" clip-rule="evenodd" d="M10.7285 24.7349H17.9392V23.1833H10.7285V24.7349Z" fill="#FEFEFE"/>
<path fill-rule="evenodd" clip-rule="evenodd" d="M35.2445 34.1091C34.8767 34.1091 34.5789 34.4086 34.5789 34.7755C34.5789 35.1432 34.8767 35.4419 35.2445 35.4419C35.6122 35.4419 35.9108 35.1432 35.9108 34.7755C35.9108 34.4086 35.6122 34.1091 35.2445 34.1091ZM35.2445 36.9934C34.0219 36.9934 33.0273 35.9989 33.0273 34.7755C33.0273 33.5529 34.0219 32.5576 35.2445 32.5576C36.4678 32.5576 37.4623 33.5529 37.4623 34.7755C37.4623 35.9989 36.4678 36.9934 35.2445 36.9934Z" fill="#FEFEFE"/>
<path fill-rule="evenodd" clip-rule="evenodd" d="M33.6795 34.3074L28.5742 29.2014L29.6711 28.1045L34.7764 33.2105L33.6795 34.3074Z" fill="#FEFEFE"/>
<path fill-rule="evenodd" clip-rule="evenodd" d="M24.4288 12.4766C24.0611 12.4766 23.7625 12.7752 23.7625 13.1429C23.7625 13.5106 24.0611 13.8093 24.4288 13.8093C24.7965 13.8093 25.0944 13.5106 25.0944 13.1429C25.0944 12.7752 24.7965 12.4766 24.4288 12.4766ZM24.4288 15.3608C23.2062 15.3608 22.2109 14.3655 22.2109 13.1429C22.2109 11.9203 23.2062 10.925 24.4288 10.925C25.6514 10.925 26.6459 11.9203 26.6459 13.1429C26.6459 14.3655 25.6514 15.3608 24.4288 15.3608Z" fill="#FEFEFE"/>
<path fill-rule="evenodd" clip-rule="evenodd" d="M23.6523 17.4692H25.2039V14.585H23.6523V17.4692Z" fill="#FEFEFE"/>
<path fill-rule="evenodd" clip-rule="evenodd" d="M24.4284 21.8508C23.2655 21.8508 22.3191 22.7965 22.3191 23.9593C22.3191 25.1222 23.2655 26.0678 24.4284 26.0678C25.5912 26.0678 26.5369 25.1222 26.5369 23.9593C26.5369 22.7965 25.5912 21.8508 24.4284 21.8508ZM24.4284 27.6194C22.4099 27.6194 20.7676 25.9771 20.7676 23.9593C20.7676 21.9408 22.4099 20.2993 24.4284 20.2993C26.4469 20.2993 28.0884 21.9408 28.0884 23.9593C28.0884 25.9771 26.4469 27.6194 24.4284 27.6194Z" fill="#FEFEFE"/>
</g>
</svg>
