<svg width="47" height="47" viewBox="0 0 47 47" fill="none" xmlns="http://www.w3.org/2000/svg">
<rect opacity="0.01" width="46.5455" height="46.5455" fill="#FF0000"/>
<mask id="mask0" mask-type="alpha" maskUnits="userSpaceOnUse" x="1" y="0" width="46" height="47">
<path fill-rule="evenodd" clip-rule="evenodd" d="M1.45508 0.775879H46.9858V46.3073H1.45508V0.775879Z" fill="white"/>
</mask>
<g mask="url(#mask0)">
<path fill-rule="evenodd" clip-rule="evenodd" d="M24.2205 2.32739C12.5236 2.32739 3.00659 11.8444 3.00659 23.542C3.00659 35.2389 12.5236 44.7559 24.2205 44.7559C35.9181 44.7559 45.4351 35.2389 45.4351 23.542C45.4351 11.8444 35.9181 2.32739 24.2205 2.32739M24.2205 46.3074C11.6672 46.3074 1.45508 36.0946 1.45508 23.542C1.45508 10.9887 11.6672 0.775879 24.2205 0.775879C36.7738 0.775879 46.9866 10.9887 46.9866 23.542C46.9866 36.0946 36.7738 46.3074 24.2205 46.3074" fill="#FEFEFE"/>
</g>
<path fill-rule="evenodd" clip-rule="evenodd" d="M34.524 18.4574C34.524 18.5761 34.427 18.6731 34.3083 18.6731H17.2122C16.7242 18.6731 16.3084 19.0059 16.2006 19.4814L14.0541 28.9984L14.0525 14.6996C14.0525 14.5809 14.1495 14.484 14.2697 14.484H18.8258C18.8754 14.484 18.9258 14.5018 18.9638 14.5336L20.4944 15.809C20.6798 15.9641 20.9157 16.0494 21.1577 16.0494H34.3083C34.427 16.0494 34.524 16.1464 34.524 16.2651V18.4574ZM14.6087 31.5592L17.282 19.974C17.3053 19.8755 17.3914 19.8064 17.493 19.8064H37.1298C37.2492 19.8064 37.3462 19.9034 37.3462 20.0229C37.3462 20.0392 37.3446 20.0547 37.3415 20.071L34.766 31.6546C34.7443 31.7539 34.6582 31.8237 34.5558 31.8237H14.8198C14.7003 31.8237 14.6033 31.7267 14.6033 31.608C14.6033 31.5902 14.6049 31.5739 14.6087 31.5592V31.5592ZM37.52 18.6731H36.0297C35.8249 18.6731 35.6574 18.5063 35.6574 18.3007V15.9525C35.6574 15.3807 35.1919 14.9161 34.621 14.9161H21.271C21.2205 14.9161 21.1717 14.899 21.1321 14.8656L19.6023 13.5911C19.4169 13.4359 19.1818 13.3506 18.939 13.3506H13.9556C13.3846 13.3506 12.9199 13.8153 12.9199 14.387V31.9207C12.9199 32.4924 13.3846 32.9571 13.9556 32.9571H34.8064C35.2966 32.9571 35.7125 32.6235 35.8187 32.1456L38.5323 19.9337C38.5478 19.8592 38.5564 19.7839 38.5564 19.7095C38.5564 19.1377 38.0917 18.6731 37.52 18.6731V18.6731Z" fill="#FEFEFE"/>
</svg>
