<svg width="261" height="187" viewBox="0 0 261 187" fill="none" xmlns="http://www.w3.org/2000/svg">
<path d="M113.711 74.8233C113.711 66.3419 116.307 58.5529 120.634 51.9756C119.941 51.4563 119.249 51.1101 118.73 50.7639C115.615 49.3792 112.153 48.1676 108.865 47.1291C104.885 45.9175 101.596 45.052 99.0005 44.3597C98.4813 44.1866 97.9622 44.0135 97.616 43.8404C82.7325 39.6863 71.1373 36.3976 71.1373 36.3976C69.0605 44.0135 73.5602 52.4948 81.175 54.5719C85.1554 55.7835 98.8275 59.5915 98.8275 59.5915C98.8275 59.5915 96.2315 69.6306 92.4241 84.8624C99.3467 91.4398 109.038 93.863 117.864 92.1321C115.095 87.2856 113.711 81.4006 113.711 74.8233Z" fill="url(#paint0_linear)"/>
<path d="M126.172 103.729C127.037 104.595 129.46 106.845 132.748 109.614C125.998 102.864 122.018 93.6899 122.018 83.4777C122.018 62.8802 138.805 46.0906 159.4 46.0906C160.784 46.0906 161.996 46.0906 163.38 46.2637C157.669 39.3401 153.862 36.5707 151.266 34.3206C130.498 35.8784 113.711 53.5334 113.711 74.8233C113.711 86.5933 118.557 96.1132 126.172 103.729Z" fill="url(#paint1_linear)"/>
<path d="M160.265 99.748C159.054 98.7095 152.304 92.6514 149.362 90.0551C143.997 85.3817 142.959 77.2465 147.805 71.7077C149.362 69.6306 151.785 68.2459 154.208 67.7266C141.92 71.3615 132.748 82.6122 132.748 96.1132C132.748 103.037 135.171 109.614 139.324 114.634C139.844 115.153 140.19 115.672 140.709 116.018C147.978 122.596 155.419 129 155.419 129C155.419 129 159.573 125.192 162.515 121.73C162.861 121.384 163.207 120.865 163.38 120.519C167.707 113.595 165.284 104.075 160.265 99.748Z" fill="url(#paint2_linear)"/>
<path d="M88.9635 26.5315C88.9635 26.5315 60.581 18.5695 60.408 18.3964C58.3312 26.1853 62.8309 34.3205 70.6187 36.3976C77.5413 38.3016 78.5797 38.6477 97.6167 44.0135C85.1561 39.6863 88.9635 26.5315 88.9635 26.5315Z" fill="url(#paint3_linear)"/>
<path d="M142.786 49.7254C142.786 49.8985 142.786 49.8985 142.786 49.7254C148.324 47.1291 155.246 45.3982 163.207 46.0905C158.015 39.5132 152.304 34.1474 145.382 30.3395C134.306 24.1083 121.672 20.8196 108.865 17.0116C106.962 16.4924 50.0236 0.222046 49.6775 0.222046C47.6008 8.01103 52.1004 15.9731 59.8883 18.2233C71.6566 21.5119 102.981 30.3395 104.885 30.8587C108.173 31.8973 111.807 32.7627 115.615 33.9743C128.248 37.7823 136.382 42.9749 142.786 49.7254Z" fill="url(#paint4_linear)"/>
<path d="M168.399 53.7065C166.841 50.9371 165.11 48.5138 163.38 46.2637C161.995 46.0906 160.784 46.0906 159.399 46.0906C138.805 46.0906 122.018 62.8802 122.018 83.4777C122.018 93.6899 125.998 102.864 132.748 109.614C133.959 110.826 135.17 111.864 136.728 113.076C137.939 114.114 139.151 115.153 140.362 116.191C139.843 115.672 139.497 115.153 138.978 114.807C134.997 109.787 132.401 103.21 132.401 96.2863C132.401 82.6123 141.574 71.3615 153.861 67.8997C153.861 67.8997 154.9 67.5536 155.073 67.5536C158.88 66.6881 162.861 67.7267 165.976 70.323C167.36 71.5346 175.84 79.1505 175.84 79.1505C175.84 79.1505 175.148 65.8227 168.399 53.7065Z" fill="url(#paint5_linear)"/>
<path d="M142.786 49.7254C136.209 42.975 128.075 37.6092 115.615 34.1475C111.807 32.9358 108.346 32.0704 104.885 31.0319C104.019 30.8588 97.9622 29.1279 90.1743 26.8777C89.309 26.7046 88.7898 26.5316 88.7898 26.5316C88.7898 26.5316 84.8093 40.5517 98.8275 44.5328C101.423 45.2251 104.885 46.2637 108.692 47.3022C112.153 48.3407 115.442 49.3792 118.557 50.937C125.652 54.2257 127.21 62.7071 124.787 68.5921C127.21 63.0533 130.325 59.0722 133.44 56.3028C137.075 52.841 140.19 51.1101 141.574 50.4178C142.44 50.0716 142.786 49.8985 142.786 49.7254C142.786 49.8985 142.786 49.8985 142.786 49.7254Z" fill="url(#paint6_linear)"/>
<path d="M25.6733 154.208C25.6733 154.208 12.2251 152.8 9.12169 154.56C7.91481 155.265 7.39757 156.145 7.39757 157.729C7.39757 158.609 7.39757 159.313 7.56998 159.841C7.56998 160.369 7.74239 160.721 8.08722 161.073C8.25963 161.425 8.77687 161.601 9.29411 161.777C9.81134 161.953 10.501 162.129 11.3631 162.481C13.6044 163.009 15.6734 163.537 17.9147 164.066C20.1561 164.594 22.0526 165.122 23.9492 166.002C25.6733 166.882 27.225 167.938 28.2595 169.522C29.4664 171.106 29.9836 173.043 29.9836 175.683C29.9836 177.971 29.6388 179.907 28.9491 181.316C28.2595 182.724 27.225 183.956 25.8457 184.66C24.4664 185.54 22.9147 186.068 21.0181 186.42C19.1216 186.772 17.2251 186.948 14.9837 186.948C7.91481 186.948 0.15625 185.892 0.15625 185.892L0.845899 179.731C0.845899 179.731 9.81134 180.611 15.6734 180.611C16.7078 180.611 17.7423 180.611 18.6044 180.435C19.4664 180.435 20.1561 180.259 20.8457 179.907C21.5354 179.555 21.8802 179.203 22.225 178.499C22.5699 177.971 22.7423 177.091 22.7423 175.859C22.7423 174.979 22.7423 174.275 22.5699 173.923C22.3974 173.395 22.225 173.043 21.7078 172.691C21.363 172.339 20.8457 172.162 20.3285 171.986C19.8113 171.81 18.9492 171.634 18.0871 171.458C14.8113 170.754 12.0527 170.05 9.81134 169.522C7.56998 168.994 5.67345 168.29 4.29415 167.234C2.91485 166.354 1.88037 165.122 1.19072 163.714C0.501075 162.305 0.15625 160.193 0.15625 157.729C0.15625 155.969 0.501075 154.384 1.19072 153.152C1.88037 151.92 2.91485 150.688 4.12173 149.984C5.32862 149.104 7.22516 148.4 8.94928 148.048C14.9837 146.992 27.7422 148.048 27.7422 148.048L25.6733 154.208Z" fill="#FF6C00"/>
<path d="M53.2597 186.244V154.384L41.3633 154.208L43.0874 148.048H73.2596L71.5354 154.384H61.0183V186.244H53.2597Z" fill="#FF6C00"/>
<path d="M88.2598 186.244V148.048H116.191L114.294 154.384H96.0183V163.185H111.363V169.522H96.0183V179.731H114.294L116.191 186.068L88.2598 186.244Z" fill="#FF6C00"/>
<path d="M156.362 169.522H147.914L148.431 163.185H163.776V183.428C162.914 183.956 162.051 184.308 160.845 184.66C159.638 185.012 158.431 185.364 157.052 185.716C155.672 186.068 154.293 186.244 152.914 186.42C151.534 186.596 149.983 186.596 148.603 186.596C145.672 186.596 143.086 186.42 140.845 185.892C138.603 185.364 136.707 184.484 135.155 183.076C133.603 181.668 132.397 179.555 131.707 177.091C130.845 174.451 130.5 171.106 130.5 166.882C130.5 162.657 131.017 159.313 131.879 156.673C132.741 154.032 133.948 152.096 135.672 150.688C137.224 149.28 139.293 148.4 141.534 147.872C143.776 147.344 146.362 147.168 149.293 147.168C156.879 147.168 163.086 147.168 163.086 147.168L161.189 153.504C161.189 153.504 153.948 153.504 149.465 153.504C147.914 153.504 146.362 153.68 144.983 153.856C143.603 154.032 142.396 154.56 141.534 155.441C140.5 156.321 139.81 157.553 139.293 159.313C138.776 161.073 138.431 163.538 138.431 166.53C138.431 169.346 138.603 171.81 138.948 173.571C139.293 175.331 139.983 176.739 140.845 177.619C141.707 178.675 142.914 179.203 144.293 179.555C145.672 179.907 147.569 180.083 149.638 180.083C150.845 180.083 152.052 179.907 153.258 179.731C154.465 179.555 155.5 179.203 156.362 179.027V169.522Z" fill="#FF6C00"/>
<path fill-rule="evenodd" clip-rule="evenodd" d="M180.499 156.673C179.465 159.313 178.947 162.833 178.947 167.058C178.947 171.282 179.292 174.803 180.499 177.443C181.361 180.083 182.74 182.02 184.464 183.428C186.016 184.836 188.085 185.716 190.326 186.244C192.568 186.772 194.982 186.948 197.568 186.948C200.154 186.948 202.568 186.772 204.809 186.244C207.05 185.716 208.947 184.836 210.671 183.428C212.395 182.02 213.602 180.083 214.637 177.443C215.671 174.803 216.188 171.282 216.188 167.058C216.188 162.657 215.671 159.313 214.637 156.673C213.775 154.032 212.395 152.096 210.671 150.688C209.119 149.28 207.05 148.4 204.809 147.872C202.568 147.344 200.154 147.168 197.568 147.168C194.982 147.168 192.568 147.344 190.326 147.872C188.085 148.4 186.189 149.28 184.464 150.688C182.74 152.096 181.533 154.032 180.499 156.673ZM193.43 153.68C194.637 153.504 196.016 153.504 197.568 153.504C198.257 153.504 198.947 153.548 199.637 153.592C200.326 153.636 201.016 153.68 201.706 153.68C202.913 153.68 204.119 154.208 205.154 155.089C206.188 155.969 207.05 157.377 207.568 159.137C208.085 160.897 208.43 163.538 208.43 166.882C208.43 170.226 208.085 172.867 207.568 174.627C207.05 176.563 206.188 177.795 205.154 178.675C204.119 179.379 203.085 179.907 201.706 180.083C200.326 180.259 198.947 180.259 197.568 180.259H197.568H197.568C196.188 180.259 194.809 180.259 193.43 180.083C192.223 180.083 191.016 179.555 189.982 178.675C188.947 177.795 188.085 176.387 187.568 174.627C187.051 172.867 186.706 170.226 186.706 166.882C186.706 163.538 187.051 160.897 187.568 159.137C188.258 157.201 188.947 155.969 189.982 155.089C191.016 154.384 192.051 153.856 193.43 153.68Z" fill="#FF6C00"/>
<path d="M257.395 154.208C257.395 154.208 243.084 152.8 239.981 154.56C238.774 155.265 238.257 156.145 238.257 157.729C238.257 158.609 238.257 159.313 238.429 159.841C238.429 160.369 238.602 160.721 238.947 161.073C239.119 161.425 239.636 161.601 240.153 161.777C240.671 161.953 241.36 162.129 242.222 162.481C244.464 163.009 246.533 163.537 248.774 164.066C251.015 164.594 252.912 165.122 254.809 166.002C256.533 166.882 258.084 167.938 259.119 169.522C260.326 171.106 260.843 173.043 260.843 175.683C260.843 177.971 260.498 179.907 259.808 181.316C259.119 182.724 258.084 183.956 256.705 184.66C255.326 185.54 253.774 186.068 251.878 186.42C249.981 186.772 248.084 186.948 245.843 186.948C238.774 186.948 231.016 185.892 231.016 185.892L231.705 179.731C231.705 179.731 240.671 180.611 246.533 180.611C247.567 180.611 248.602 180.611 249.464 180.435C250.326 180.435 251.015 180.259 251.705 179.907C252.395 179.555 252.74 179.203 253.084 178.499C253.429 177.971 253.602 177.091 253.602 175.859C253.602 174.979 253.602 174.275 253.429 173.923C253.257 173.395 253.084 173.043 252.567 172.691C252.222 172.339 251.705 172.162 251.188 171.986C250.671 171.81 249.809 171.634 248.947 171.458C245.671 170.754 242.912 170.05 240.671 169.522C238.429 168.994 236.533 168.29 235.154 167.234C233.774 166.354 232.74 165.122 232.05 163.714C231.36 162.305 231.016 160.193 231.016 157.729C231.016 155.969 231.36 154.384 232.05 153.152C232.74 151.92 233.774 150.688 234.981 149.984C236.188 149.104 238.085 148.4 239.809 148.048C245.843 146.992 258.257 148.048 258.257 148.048L257.395 154.208Z" fill="#FF6C00"/>
<defs>
<linearGradient id="paint0_linear" x1="99.5428" y1="97.6518" x2="129.324" y2="61.7743" gradientUnits="userSpaceOnUse">
<stop stop-color="#B3C1CB" stop-opacity="0.5"/>
<stop offset="0.9958" stop-color="#545B69"/>
</linearGradient>
<linearGradient id="paint1_linear" x1="133.382" y1="138.717" x2="196.302" y2="97.9193" gradientUnits="userSpaceOnUse">
<stop stop-color="#BCCFE3" stop-opacity="0.5"/>
<stop offset="0.2173" stop-color="#A9BCCA" stop-opacity="0.6482"/>
<stop offset="0.5502" stop-color="#90A3A9" stop-opacity="0.8753"/>
<stop offset="0.7331" stop-color="#86999D"/>
</linearGradient>
<linearGradient id="paint2_linear" x1="122.699" y1="139.722" x2="164.835" y2="138.937" gradientUnits="userSpaceOnUse">
<stop stop-color="#DBE5F5" stop-opacity="0.6"/>
<stop offset="0.1739" stop-color="#CAD4E4" stop-opacity="0.6695"/>
<stop offset="0.5205" stop-color="#9CA9B7" stop-opacity="0.8082"/>
<stop offset="1" stop-color="#546470"/>
</linearGradient>
<linearGradient id="paint3_linear" x1="91.1214" y1="52.275" x2="95.6437" y2="25.9458" gradientUnits="userSpaceOnUse">
<stop stop-color="#B3C1CB" stop-opacity="0.7"/>
<stop offset="0.951" stop-color="#4B657B"/>
</linearGradient>
<linearGradient id="paint4_linear" x1="48.6095" y1="40.8591" x2="122.006" y2="81.0372" gradientUnits="userSpaceOnUse">
<stop stop-color="#687991" stop-opacity="0.4"/>
<stop offset="1" stop-color="#BECFD8"/>
</linearGradient>
<linearGradient id="paint5_linear" x1="144.109" y1="133.999" x2="192.303" y2="94.8508" gradientUnits="userSpaceOnUse">
<stop stop-color="#B1C2D7" stop-opacity="0.4"/>
<stop offset="0.951" stop-color="#596476"/>
</linearGradient>
<linearGradient id="paint6_linear" x1="84.4322" y1="96.9194" x2="166.92" y2="50.5447" gradientUnits="userSpaceOnUse">
<stop stop-color="#A5B2BB" stop-opacity="0.7"/>
<stop offset="1" stop-color="#606989"/>
</linearGradient>
</defs>
</svg>
