<svg width="248" height="77" viewBox="0 0 248 77" fill="none" xmlns="http://www.w3.org/2000/svg">
<path d="M38.2701 44.275C38.2701 39.27 39.8085 34.65 42.4047 30.8C42.0201 30.5113 41.6355 30.3188 41.2508 30.1263C39.4239 29.26 37.4047 28.5862 35.3855 28.0087C33.0778 27.335 31.0585 26.7575 29.5201 26.3725C29.2316 26.2762 28.9431 26.18 28.7508 26.0837C20.0008 23.5812 13.0778 21.6562 13.0778 21.6562C11.8278 26.18 14.5201 31.185 19.0393 32.4362C21.4431 33.11 29.4239 35.42 29.4239 35.42C29.4239 35.42 27.8855 41.3875 25.6739 50.3388C29.8085 54.1888 35.4816 55.6325 40.6739 54.67C39.1355 51.59 38.2701 48.125 38.2701 44.275Z" fill="url(#paint0_linear)"/>
<path d="M45.6734 61.3113C46.1541 61.7925 47.5965 63.14 49.5195 64.7763C45.5772 60.83 43.1734 55.3438 43.1734 49.28C43.1734 37.0563 53.0772 27.1425 65.2888 27.1425C66.058 27.1425 66.8272 27.1425 67.5965 27.2388C64.2311 23.1 62.0195 21.4638 60.4811 20.2125C48.1734 21.175 38.2695 31.57 38.2695 44.1788C38.2695 51.205 41.1541 56.8838 45.6734 61.3113Z" fill="url(#paint1_linear)"/>
<path d="M65.77 59.0012C65.0969 58.4237 61.0584 54.7662 59.3277 53.2262C56.1546 50.435 55.5777 45.6225 58.3661 42.35C59.3277 41.0987 60.6738 40.3287 62.1161 39.9437C54.8084 42.0612 49.4238 48.7987 49.4238 56.7875C49.4238 60.9262 50.8661 64.7762 53.27 67.76C53.5584 68.0487 53.7508 68.3375 54.0392 68.6262C58.3661 72.4762 62.6931 76.3262 62.6931 76.3262C62.6931 76.3262 65.1931 74.1125 66.9238 71.995C67.1161 71.8025 67.3084 71.5137 67.4046 71.3212C70.1931 67.1825 68.7508 61.6 65.77 59.0012Z" fill="url(#paint2_linear)"/>
<path d="M23.6547 15.6887C23.6547 15.6887 6.92392 10.9725 6.73162 10.8762C5.48162 15.4962 8.17392 20.3087 12.7893 21.56C16.9239 22.715 17.5008 22.9075 28.7508 26.0837C21.4432 23.485 23.6547 15.6887 23.6547 15.6887Z" fill="url(#paint3_linear)"/>
<path d="M55.4816 29.4525C55.4816 29.5488 55.4816 29.5488 55.4816 29.4525C58.7508 27.9125 62.8855 26.8538 67.597 27.335C64.5201 23.485 61.1547 20.3088 57.0201 17.9988C50.4816 14.3413 42.9816 12.4163 35.4816 10.1063C34.3278 9.8175 0.673925 0.192505 0.481617 0.192505C-0.768383 4.8125 1.92392 9.52876 6.53931 10.8763C13.4624 12.8013 32.0201 18.095 33.1739 18.3838C35.097 18.9613 37.3085 19.5388 39.5201 20.2125C46.8278 22.33 51.6355 25.41 55.4816 29.4525Z" fill="url(#paint4_linear)"/>
<path d="M70.5777 31.7625C69.6161 30.1263 68.6546 28.6825 67.5969 27.335C66.8277 27.2388 66.0584 27.2388 65.2892 27.2388C53.0777 27.2388 43.1738 37.1525 43.1738 49.3763C43.1738 55.44 45.5777 60.83 49.52 64.8725C50.1931 65.5463 50.9623 66.22 51.8277 66.8938C52.5008 67.4713 53.27 68.145 53.9431 68.7225C53.6546 68.4338 53.4623 68.145 53.1738 67.8563C50.77 64.8725 49.3277 61.0225 49.3277 56.8838C49.3277 48.7988 54.7123 42.1575 62.02 40.04C62.02 40.04 62.5969 39.8475 62.6931 39.8475C64.9046 39.3663 67.3084 39.9438 69.1354 41.4838C70.0008 42.1575 75.0008 46.6813 75.0008 46.6813C75.0008 46.6813 74.6161 38.885 70.5777 31.7625Z" fill="url(#paint5_linear)"/>
<path d="M55.4805 29.4525C51.6343 25.41 46.8266 22.33 39.4228 20.2125C37.2112 19.5387 35.0958 18.9612 33.0766 18.3837C32.5958 18.2875 28.942 17.2287 24.4228 15.8812C23.942 15.785 23.6535 15.6887 23.6535 15.6887C23.6535 15.6887 21.3458 23.9662 29.6151 26.3725C31.1535 26.7575 33.1728 27.4312 35.4805 28.0087C37.4997 28.5862 39.5189 29.26 41.3458 30.1262C45.5766 32.0512 46.442 37.0562 44.9997 40.6175C46.442 37.345 48.2689 35.035 50.0958 33.3025C52.2112 31.2812 54.0381 30.2225 54.9035 29.8375C55.2881 29.645 55.4805 29.5487 55.4805 29.4525C55.4805 29.5487 55.4805 29.5487 55.4805 29.4525Z" fill="url(#paint6_linear)"/>
<path d="M116.888 37.4083C116.888 37.4083 109.396 36.6416 107.667 37.6C106.994 37.9833 106.706 38.4625 106.706 39.325C106.706 39.8041 106.706 40.1875 106.802 40.475C106.802 40.7625 106.898 40.9541 107.09 41.1458C107.186 41.3375 107.475 41.4333 107.763 41.5291C108.051 41.625 108.435 41.7208 108.915 41.9125C110.164 42.2 111.317 42.4875 112.565 42.775C113.814 43.0625 114.871 43.35 115.927 43.8291C116.888 44.3083 117.752 44.8833 118.328 45.7458C119.001 46.6083 119.289 47.6625 119.289 49.1C119.289 50.3458 119.097 51.4 118.713 52.1666C118.328 52.9333 117.752 53.6041 116.984 53.9875C116.215 54.4666 115.351 54.7541 114.294 54.9458C113.238 55.1375 112.181 55.2333 110.932 55.2333C106.994 55.2333 102.672 54.6583 102.672 54.6583L103.056 51.3041C103.056 51.3041 108.051 51.7833 111.317 51.7833C111.893 51.7833 112.469 51.7833 112.95 51.6875C113.43 51.6875 113.814 51.5916 114.198 51.4C114.582 51.2083 114.775 51.0166 114.967 50.6333C115.159 50.3458 115.255 49.8666 115.255 49.1958C115.255 48.7166 115.255 48.3333 115.159 48.1416C115.063 47.8541 114.967 47.6625 114.678 47.4708C114.486 47.2791 114.198 47.1833 113.91 47.0875C113.622 46.9916 113.142 46.8958 112.661 46.8C110.836 46.4166 109.3 46.0333 108.051 45.7458C106.802 45.4583 105.746 45.075 104.977 44.5C104.209 44.0208 103.632 43.35 103.248 42.5833C102.864 41.8166 102.672 40.6666 102.672 39.325C102.672 38.3666 102.864 37.5041 103.248 36.8333C103.632 36.1625 104.209 35.4916 104.881 35.1083C105.553 34.6291 106.61 34.2458 107.571 34.0541C110.932 33.4791 118.04 34.0541 118.04 34.0541L116.888 37.4083Z" fill="#FF6C00"/>
<path d="M132.257 54.85V37.5042L125.629 37.4084L126.589 34.0542H143.399L142.438 37.5042H136.579V54.85H132.257Z" fill="#FF6C00"/>
<path d="M151.756 54.85V34.0542H167.316L166.26 37.5042H156.078V42.2959H164.627V45.7459H156.078V51.3042H166.26L167.316 54.7542L151.756 54.85Z" fill="#FF6C00"/>
<path d="M189.697 45.7458H184.99L185.279 42.2958H193.827V53.3166C193.347 53.6041 192.867 53.7958 192.194 53.9875C191.522 54.1791 190.85 54.3708 190.081 54.5625C189.313 54.7541 188.544 54.85 187.776 54.9458C187.007 55.0416 186.143 55.0416 185.375 55.0416C183.742 55.0416 182.301 54.9458 181.052 54.6583C179.804 54.3708 178.747 53.8916 177.882 53.125C177.018 52.3583 176.346 51.2083 175.961 49.8666C175.481 48.4291 175.289 46.6083 175.289 44.3083C175.289 42.0083 175.577 40.1875 176.057 38.75C176.538 37.3125 177.21 36.2583 178.171 35.4916C179.035 34.725 180.188 34.2458 181.436 33.9583C182.685 33.6708 184.126 33.575 185.759 33.575C189.985 33.575 193.443 33.575 193.443 33.575L192.386 37.025C192.386 37.025 188.352 37.025 185.855 37.025C184.99 37.025 184.126 37.1208 183.357 37.2166C182.589 37.3125 181.917 37.6 181.436 38.0791C180.86 38.5583 180.476 39.2291 180.188 40.1875C179.9 41.1458 179.707 42.4875 179.707 44.1166C179.707 45.65 179.804 46.9916 179.996 47.95C180.188 48.9083 180.572 49.675 181.052 50.1541C181.532 50.7291 182.205 51.0166 182.973 51.2083C183.742 51.4 184.798 51.4958 185.951 51.4958C186.623 51.4958 187.296 51.4 187.968 51.3041C188.64 51.2083 189.217 51.0166 189.697 50.9208V45.7458Z" fill="#FF6C00"/>
<path fill-rule="evenodd" clip-rule="evenodd" d="M203.144 38.75C202.567 40.1875 202.279 42.1041 202.279 44.4041C202.279 46.7041 202.471 48.6208 203.144 50.0583C203.624 51.4958 204.392 52.55 205.353 53.3166C206.217 54.0833 207.37 54.5625 208.619 54.85C209.867 55.1375 211.212 55.2333 212.653 55.2333C214.094 55.2333 215.439 55.1375 216.687 54.85C217.936 54.5625 218.992 54.0833 219.953 53.3166C220.914 52.55 221.586 51.4958 222.162 50.0583C222.739 48.6208 223.027 46.7041 223.027 44.4041C223.027 42.0083 222.739 40.1875 222.162 38.75C221.682 37.3125 220.914 36.2583 219.953 35.4916C219.089 34.725 217.936 34.2458 216.687 33.9583C215.439 33.6708 214.094 33.575 212.653 33.575C211.212 33.575 209.867 33.6708 208.619 33.9583C207.37 34.2458 206.314 34.725 205.353 35.4916C204.392 36.2583 203.72 37.3125 203.144 38.75ZM210.348 37.1208C211.02 37.025 211.789 37.025 212.653 37.025C213.037 37.025 213.421 37.0489 213.806 37.0729C214.19 37.0968 214.574 37.1208 214.958 37.1208C215.631 37.1208 216.303 37.4083 216.879 37.8875C217.456 38.3666 217.936 39.1333 218.224 40.0916C218.512 41.05 218.704 42.4875 218.704 44.3083C218.704 46.1291 218.512 47.5666 218.224 48.525C217.936 49.5791 217.456 50.25 216.879 50.7291C216.303 51.1125 215.727 51.4 214.958 51.4958C214.19 51.5916 213.421 51.5916 212.653 51.5916C211.885 51.5916 211.116 51.5916 210.348 51.4958C209.675 51.4958 209.003 51.2083 208.427 50.7291C207.85 50.25 207.37 49.4833 207.082 48.525C206.794 47.5666 206.602 46.1291 206.602 44.3083C206.602 42.4875 206.794 41.05 207.082 40.0916C207.466 39.0375 207.85 38.3666 208.427 37.8875C209.003 37.5041 209.579 37.2166 210.348 37.1208Z" fill="#FF6C00"/>
<path d="M245.983 37.4083C245.983 37.4083 238.011 36.6416 236.282 37.6C235.609 37.9833 235.321 38.4625 235.321 39.325C235.321 39.8041 235.321 40.1875 235.417 40.475C235.417 40.7625 235.513 40.9541 235.706 41.1458C235.802 41.3375 236.09 41.4333 236.378 41.5291C236.666 41.625 237.05 41.7208 237.531 41.9125C238.779 42.2 239.932 42.4875 241.181 42.775C242.429 43.0625 243.486 43.35 244.542 43.8291C245.503 44.3083 246.367 44.8833 246.944 45.7458C247.616 46.6083 247.904 47.6625 247.904 49.1C247.904 50.3458 247.712 51.4 247.328 52.1666C246.944 52.9333 246.367 53.6041 245.599 53.9875C244.831 54.4666 243.966 54.7541 242.909 54.9458C241.853 55.1375 240.796 55.2333 239.548 55.2333C235.609 55.2333 231.287 54.6583 231.287 54.6583L231.671 51.3041C231.671 51.3041 236.666 51.7833 239.932 51.7833C240.508 51.7833 241.084 51.7833 241.565 51.6875C242.045 51.6875 242.429 51.5916 242.813 51.4C243.198 51.2083 243.39 51.0166 243.582 50.6333C243.774 50.3458 243.87 49.8666 243.87 49.1958C243.87 48.7166 243.87 48.3333 243.774 48.1416C243.678 47.8541 243.582 47.6625 243.294 47.4708C243.102 47.2791 242.813 47.1833 242.525 47.0875C242.237 46.9916 241.757 46.8958 241.277 46.8C239.452 46.4166 237.915 46.0333 236.666 45.7458C235.417 45.4583 234.361 45.075 233.592 44.5C232.824 44.0208 232.248 43.35 231.863 42.5833C231.479 41.8166 231.287 40.6666 231.287 39.325C231.287 38.3666 231.479 37.5041 231.863 36.8333C232.248 36.1625 232.824 35.4916 233.496 35.1083C234.169 34.6291 235.225 34.2458 236.186 34.0541C239.548 33.4791 246.463 34.0541 246.463 34.0541L245.983 37.4083Z" fill="#FF6C00"/>
<defs>
<linearGradient id="paint0_linear" x1="29.9663" y1="57.7645" x2="47.5451" y2="36.5079" gradientUnits="userSpaceOnUse">
<stop stop-color="#B3C1CB" stop-opacity="0.5"/>
<stop offset="0.9958" stop-color="#545B69"/>
</linearGradient>
<linearGradient id="paint1_linear" x1="49.8475" y1="82.06" x2="87.0716" y2="58.0189" gradientUnits="userSpaceOnUse">
<stop stop-color="#BCCFE3" stop-opacity="0.5"/>
<stop offset="0.2173" stop-color="#A9BCCA" stop-opacity="0.6482"/>
<stop offset="0.5502" stop-color="#90A3A9" stop-opacity="0.8753"/>
<stop offset="0.7331" stop-color="#86999D"/>
</linearGradient>
<linearGradient id="paint2_linear" x1="43.5923" y1="82.627" x2="68.5001" y2="82.1649" gradientUnits="userSpaceOnUse">
<stop stop-color="#DBE5F5" stop-opacity="0.6"/>
<stop offset="0.1739" stop-color="#CAD4E4" stop-opacity="0.6695"/>
<stop offset="0.5205" stop-color="#9CA9B7" stop-opacity="0.8082"/>
<stop offset="1" stop-color="#546470"/>
</linearGradient>
<linearGradient id="paint3_linear" x1="24.8908" y1="30.9126" x2="27.5793" y2="15.336" gradientUnits="userSpaceOnUse">
<stop stop-color="#B3C1CB" stop-opacity="0.7"/>
<stop offset="0.951" stop-color="#4B657B"/>
</linearGradient>
<linearGradient id="paint4_linear" x1="-0.213366" y1="24.2" x2="43.1451" y2="47.9754" gradientUnits="userSpaceOnUse">
<stop stop-color="#687991" stop-opacity="0.4"/>
<stop offset="1" stop-color="#BECFD8"/>
</linearGradient>
<linearGradient id="paint5_linear" x1="56.206" y1="79.2296" x2="84.7126" y2="56.0882" gradientUnits="userSpaceOnUse">
<stop stop-color="#B1C2D7" stop-opacity="0.4"/>
<stop offset="0.951" stop-color="#596476"/>
</linearGradient>
<linearGradient id="paint6_linear" x1="20.9381" y1="57.498" x2="69.8751" y2="30.2835" gradientUnits="userSpaceOnUse">
<stop stop-color="#A5B2BB" stop-opacity="0.7"/>
<stop offset="1" stop-color="#606989"/>
</linearGradient>
</defs>
</svg>
