<svg width="32" height="32" viewBox="0 0 32 32" fill="none" xmlns="http://www.w3.org/2000/svg">
<path d="M18.9545 9.36829C17.1655 7.57929 14.2655 7.57929 12.4755 9.36829C10.6865 11.1573 10.6865 14.0573 12.4755 15.8473C14.2655 17.6363 16.5155 19.2063 16.5155 19.2063M12.0688 22.4264C13.8578 24.2154 16.7578 24.2154 18.5478 22.4264C20.3368 20.6374 20.3368 17.7374 18.5478 15.9474C16.7578 14.1584 14.5078 12.5884 14.5078 12.5884M30.9614 15.8054C30.9614 7.43539 24.1764 0.650391 15.8064 0.650391C7.43639 0.650391 0.650391 7.43539 0.650391 15.8054C0.650391 24.1754 7.43639 30.9604 15.8064 30.9604C24.1764 30.9604 30.9614 24.1754 30.9614 15.8054Z" stroke="white" stroke-width="1.3"/>
</svg>
